<svg xmlns="http://www.w3.org/2000/svg" viewBox="0 0 512 512" width="512" height="512">
  <defs>
    <linearGradient id="bgGrad" x1="0%" y1="0%" x2="100%" y2="100%">
      <stop offset="0%" stop-color="#1e3a8a"/>
      <stop offset="100%" stop-color="#0f172a"/>
    </linearGradient>
    <linearGradient id="goldGrad" x1="0%" y1="0%" x2="100%" y2="100%">
      <stop offset="0%" stop-color="#fbbf24"/>
      <stop offset="100%" stop-color="#d97706"/>
    </linearGradient>
  </defs>
  <!-- Background with rounded corners -->
  <rect width="512" height="512" rx="112" fill="url(#bgGrad)"/>
  <!-- Outer Gold Border -->
  <rect x="16" y="16" width="480" height="480" rx="96" fill="none" stroke="#fbbf24" stroke-width="4" opacity="0.4"/>
  <!-- Open Book Base -->
  <path d="M96 360 C160 330, 220 340, 256 365 C292 340, 352 330, 416 360 L416 190 C352 160, 292 170, 256 195 C220 170, 160 160, 96 190 Z" fill="#ffffff" opacity="0.95"/>
  <!-- Book Spine Center Line -->
  <path d="M256 195 L256 365" stroke="#cbd5e1" stroke-width="4"/>
  <!-- Golden Cross Symbol centered -->
  <path d="M240 100 L272 100 L272 260 L240 260 Z" fill="url(#goldGrad)"/>
  <path d="M190 140 L322 140 L322 172 L190 172 Z" fill="url(#goldGrad)"/>
  <!-- Ray Accents -->
  <circle cx="256" cy="156" r="70" fill="none" stroke="#fbbf24" stroke-width="2" opacity="0.3" stroke-dasharray="6,6"/>
</svg>